<svg width="48" height="61" viewBox="0 0 48 61" fill="none" xmlns="http://www.w3.org/2000/svg">
<path fill-rule="evenodd" clip-rule="evenodd" d="M33.6016 2C34.1652 5.135 32.7563 8.27 31.0656 10.55C29.3749 12.83 26.2753 14.825 23.1758 14.54C22.6122 11.405 24.0211 8.555 25.7118 6.275C27.6842 3.995 30.7839 2.285 33.6016 2ZM42.6186 51.59C44.0275 49.31 44.8728 47.885 46 45.32C37.2647 41.9 35.8559 29.36 44.5911 24.8C42.055 21.38 38.3919 19.67 34.7287 19.67C32.1927 19.67 30.502 20.24 28.8113 20.81C27.4025 21.38 26.2753 21.665 24.8665 21.665C23.1758 21.665 22.0486 21.095 20.3579 20.525C18.6672 19.955 16.9765 19.385 15.0041 19.385C11.0592 19.385 6.83245 21.665 4.29643 25.94C0.633328 31.64 1.19689 42.755 7.11432 51.875C9.65034 55.295 12.4681 59 16.1312 59C17.8219 59 18.6672 58.43 19.7944 58.145C21.2032 57.575 22.6122 57.005 24.8665 57.005C27.4025 57.005 28.5296 57.575 29.9385 58.145C31.0656 58.715 31.9109 59 33.6016 59C37.5466 59 40.3644 54.725 42.6186 51.59Z" stroke="white" stroke-width="3" stroke-miterlimit="10" stroke-linecap="round" stroke-linejoin="round"/>
</svg>
