<svg width="52" height="46" viewBox="0 0 52 46" fill="none" xmlns="http://www.w3.org/2000/svg">
<path d="M3.0273 19.71C1.37052 19.6947 0.0150805 21.0255 -0.000149203 22.6823C-0.0153789 24.339 1.31536 25.6945 2.97215 25.7097L3.0273 19.71ZM50.9205 25.2717C52.1028 24.111 52.1202 22.2116 50.9595 21.0293L32.0439 1.76271C30.8831 0.580419 28.9837 0.562959 27.8014 1.72371C26.6191 2.88447 26.6017 4.78388 27.7624 5.96617L44.5763 23.092L27.4505 39.9059C26.2682 41.0666 26.2507 42.966 27.4115 44.1483C28.5722 45.3306 30.4716 45.3481 31.6539 44.1873L50.9205 25.2717ZM2.97215 25.7097L48.7912 26.1309L48.8463 20.1311L3.0273 19.71L2.97215 25.7097Z" fill="#71F10D"/>
</svg>
