<svg width="100" height="100" viewBox="0 0 100 100" fill="none" xmlns="http://www.w3.org/2000/svg">
<circle cx="50" cy="50" r="50" fill="#0D0F17"/>
<path d="M55.2277 47.1734V46.6734V30.7734C55.2277 29.8848 55.1065 29.2132 54.9133 28.7457C54.7211 28.2805 54.4763 28.0561 54.2408 27.9676C54.005 27.8791 53.6718 27.8869 53.2192 28.1101C52.7645 28.3344 52.2294 28.7589 51.6424 29.4252L55.2277 47.1734ZM55.2277 47.1734H55.7277H62.5515C64.0392 47.1734 64.7553 47.6319 64.9748 48.1185C65.1942 48.6045 65.0646 49.444 64.0763 50.5598L64.0751 50.5612L49.1247 67.5653L49.1247 67.5653L47.3584 69.5745C46.7712 70.241 46.236 70.6657 45.7812 70.89C45.3286 71.1132 44.9954 71.121 44.7596 71.0325C44.5241 70.9441 44.2793 70.7196 44.0871 70.2545C43.8939 69.7869 43.7727 69.1153 43.7727 68.2267V52.3267V51.8267H43.2727H36.449C34.9613 51.8267 34.2452 51.3682 34.0256 50.8816C33.8062 50.3956 33.9358 49.5561 34.9241 48.4403L34.9253 48.439L49.8757 31.4348L49.8757 31.4348L51.6421 29.4256L55.2277 47.1734Z" stroke="#999DBA"/>
</svg>
