<svg width="50" height="50" viewBox="0 0 50 50" fill="none" xmlns="http://www.w3.org/2000/svg">
<path d="M10.417 20.8333H14.5837C18.7503 20.8333 20.8337 18.75 20.8337 14.5833V10.4166C20.8337 6.24996 18.7503 4.16663 14.5837 4.16663H10.417C6.25033 4.16663 4.16699 6.24996 4.16699 10.4166V14.5833C4.16699 18.75 6.25033 20.8333 10.417 20.8333Z" stroke="#404250" stroke-width="2" stroke-miterlimit="10" stroke-linecap="round" stroke-linejoin="round"/>
<path d="M35.417 20.8333H39.5837C43.7503 20.8333 45.8337 18.75 45.8337 14.5833V10.4166C45.8337 6.24996 43.7503 4.16663 39.5837 4.16663H35.417C31.2503 4.16663 29.167 6.24996 29.167 10.4166V14.5833C29.167 18.75 31.2503 20.8333 35.417 20.8333Z" stroke="#404250" stroke-width="2" stroke-miterlimit="10" stroke-linecap="round" stroke-linejoin="round"/>
<path d="M35.417 45.8333H39.5837C43.7503 45.8333 45.8337 43.75 45.8337 39.5833V35.4166C45.8337 31.25 43.7503 29.1666 39.5837 29.1666H35.417C31.2503 29.1666 29.167 31.25 29.167 35.4166V39.5833C29.167 43.75 31.2503 45.8333 35.417 45.8333Z" stroke="#404250" stroke-width="2" stroke-miterlimit="10" stroke-linecap="round" stroke-linejoin="round"/>
<path d="M10.417 45.8333H14.5837C18.7503 45.8333 20.8337 43.75 20.8337 39.5833V35.4166C20.8337 31.25 18.7503 29.1666 14.5837 29.1666H10.417C6.25033 29.1666 4.16699 31.25 4.16699 35.4166V39.5833C4.16699 43.75 6.25033 45.8333 10.417 45.8333Z" stroke="#404250" stroke-width="2" stroke-miterlimit="10" stroke-linecap="round" stroke-linejoin="round"/>
</svg>
