<svg width="50" height="50" viewBox="0 0 50 50" fill="none" xmlns="http://www.w3.org/2000/svg">
<path d="M24.6276 42.6423L24.6286 42.6413L36.8557 30.1434C37.1614 29.8387 37.5765 29.6666 37.9796 29.6666H40.6254C43.2243 29.6666 45.3337 31.7761 45.3337 34.375V40.625C45.3337 43.2238 43.2243 45.3333 40.6254 45.3333H25.7504C24.3453 45.3333 23.6432 43.6426 24.6276 42.6423Z" stroke="#999DBA"/>
<path d="M23.9375 15.1251H24.4375C24.4375 14.7036 24.6081 14.305 24.9003 13.9944L26.8119 12.0828C28.6583 10.2364 31.6334 10.2364 33.4798 12.0828L37.8964 16.4995L37.8982 16.5013C39.7634 18.3476 39.7634 21.3213 37.9173 23.1674L32.2722 28.8125L32.2714 28.8132L27.1472 33.9166L27.1464 33.9174C26.143 34.9208 24.4375 34.2129 24.4375 32.8126V32.7733V32.734V32.6946V32.6551V32.6154V32.5757V32.5359V32.496V32.456V32.4159V32.3757V32.3355V32.2951V32.2546V32.2141V32.1735V32.1327V32.0919V32.051V32.0101V31.969V31.9278V31.8866V31.8453V31.8039V31.7624V31.7209V31.6792V31.6375V31.5957V31.5538V31.5119V31.4698V31.4277V31.3856V31.3433V31.301V31.2586V31.2161V31.1735V31.1309V31.0882V31.0455V31.0026V30.9597V30.9168V30.8737V30.8306V30.7875V30.7442V30.7009V30.6576V30.6142V30.5707V30.5271V30.4835V30.4398V30.3961V30.3523V30.3085V30.2646V30.2206V30.1766V30.1325V30.0884V30.0442V30V29.9557V29.9114V29.867V29.8225V29.778V29.7335V29.6889V29.6443V29.5996V29.5548V29.5101V29.4652V29.4204V29.3755V29.3305V29.2855V29.2405V29.1954V29.1503V29.1051V29.0599V29.0147V28.9694V28.9241V28.8787V28.8333V28.7879V28.7425V28.697V28.6514V28.6059V28.5603V28.5147V28.469V28.4234V28.3777V28.3319V28.2862V28.2404V28.1946V28.1487V28.1028V28.057V28.011V27.9651V27.9192V27.8732V27.8272V27.7812V27.7351V27.6891V27.643V27.5969V27.5508V27.5047V27.4585V27.4124V27.3662V27.32V27.2738V27.2276V27.1814V27.1352V27.0889V27.0427V26.9964V26.9502V26.9039V26.8576V26.8114V26.7651V26.7188V26.6725V26.6262V26.5799V26.5336V26.4873V26.441V26.3947V26.3484V26.3021V26.2558V26.2095V26.1632V26.1169V26.0707V26.0244V25.9781V25.9319V25.8856V25.8394V25.7931V25.7469V25.7007V25.6545V25.6083V25.5622V25.516V25.4698V25.4237V25.3776V25.3315V25.2854V25.2394V25.1933V25.1473V25.1013V25.0553V25.0093V24.9634V24.9175V24.8716V24.8257V24.7798V24.734V24.6882V24.6424V24.5967V24.551V24.5053V24.4596V24.414V24.3684V24.3228V24.2773V24.2318V24.1863V24.1409V24.0955V24.0501V24.0048V23.9595V23.9143V23.869V23.8239V23.7787V23.7336V23.6886V23.6436V23.5986V23.5537V23.5088V23.4639V23.4191V23.3744V23.3297V23.285V23.2404V23.1959V23.1513V23.1069V23.0625V23.0181V22.9738V22.9295V22.8853V22.8412V22.7971V22.7531V22.7091V22.6651V22.6213V22.5775V22.5337V22.49V22.4464V22.4028V22.3593V22.3159V22.2725V22.2292V22.1859V22.1427V22.0996V22.0565V22.0135V21.9706V21.9277V21.885V21.8422V21.7996V21.757V21.7145V21.6721V21.6297V21.5874V21.5452V21.5031V21.461V21.419V21.3771V21.3353V21.2935V21.2519V21.2103V21.1688V21.1273V21.086V21.0447V21.0036V20.9625V20.9214V20.8805V20.8397V20.7989V20.7583V20.7177V20.6772V20.6368V20.5965V20.5563V20.5161V20.4761V20.4361V20.3963V20.3565V20.3169V20.2773V20.2379V20.1985V20.1592V20.12V20.081V20.042V20.0031V19.9643V19.9257V19.8871V19.8486V19.8103V19.772V19.7339V19.6958V19.6579V19.6201V19.5823V19.5447V19.5072V19.4698V19.4325V19.3954V19.3583V19.3213V19.2845V19.2478V19.2112V19.1747V19.1383V19.1021V19.0659V19.0299V18.994V18.9582V18.9225V18.887V18.8516V18.8163V18.7811V18.7461V18.7111V18.6763V18.6417V18.6071V18.5727V18.5384V18.5042V18.4702V18.4363V18.4025V18.3689V18.3354V18.302V18.2687V18.2356V18.2026V18.1698V18.1371V18.1045V18.0721V18.0398V18.0077V17.9756V17.9438V17.912V17.8804V17.849V17.8177V17.7865V17.7555V17.7246V17.6939V17.6633V17.6329V17.6026V17.5725V17.5425V17.5126V17.4829V17.4534V17.424V17.3948V17.3657V17.3368V17.308V17.2794V17.2509V17.2226V17.1945V17.1665V17.1386V17.111V17.0835V17.0561V17.0289V17.0019V16.975V16.9483V16.9218V16.8954V16.8692V16.8432V16.8173V16.7916V16.7661V16.7407V16.7155V16.6905V16.6656V16.6409V16.6164V16.5921V16.5679V16.5439V16.5201V16.4964V16.473V16.4497V16.4266V16.4036V16.3809V16.3583V16.3359V16.3137V16.2917V16.2698V16.2482V16.2267V16.2054V16.1843V16.1634V16.1426V16.1221V16.1017V16.0816V16.0616V16.0418V16.0222V16.0028V15.9836V15.9645V15.9457V15.9271V15.9086V15.8904V15.8723V15.8545V15.8368V15.8194V15.8021V15.7851V15.7682V15.7515V15.7351V15.7188V15.7028V15.6869V15.6713V15.6559V15.6406V15.6256V15.6108V15.5962V15.5818V15.5676V15.5536V15.5399V15.5263V15.513V15.4998V15.4869V15.4742V15.4617V15.4494V15.4374V15.4255V15.4139V15.4025V15.3913V15.3803V15.3696V15.3591V15.3488V15.3387V15.3288V15.3192V15.3098V15.3006V15.2916V15.2829V15.2744V15.2661V15.2581V15.2502V15.2427V15.2353V15.2282V15.2213V15.2146V15.2082V15.202V15.196V15.1903V15.1848V15.1795V15.1745V15.1697V15.1652V15.1609V15.1568V15.153V15.1494V15.1461V15.143V15.1402V15.1376V15.1352V15.1331V15.1312V15.1296V15.1282V15.1271V15.1262V15.1256V15.1252C24.4375 15.1251 24.4375 15.1251 23.9375 15.1251Z" stroke="#999DBA"/>
<path d="M9.14375 44.5957C8.63563 44.3349 8.1515 44.0429 7.70355 43.7054L7.68411 43.686L7.65837 43.6661C7.39631 43.4646 7.17258 43.2766 6.97209 43.0579C6.74499 42.8102 6.52518 42.5703 6.30624 42.3121C5.96349 41.8596 5.66756 41.3699 5.40363 40.8556C5.39276 40.7919 5.36906 40.7268 5.32921 40.6658C5.32191 40.6547 5.31438 40.6441 5.30668 40.6341C5.2036 40.3846 5.11357 40.1156 5.01722 39.8266C4.9417 39.5803 4.88384 39.3313 4.82197 39.0633C4.72385 38.5504 4.66602 38.0229 4.66602 37.5V9.37496C4.66602 7.92608 5.14679 6.75754 5.95186 5.95247C6.75693 5.1474 7.92547 4.66663 9.37435 4.66663H15.6243C17.0732 4.66663 18.2418 5.1474 19.0468 5.95247C19.8519 6.75754 20.3327 7.92608 20.3327 9.37496V37.5C20.3327 39.6113 19.473 41.5497 18.1015 42.9615C18.1007 42.9623 18.1 42.9631 18.0992 42.9639L18.0208 43.0422L18.3743 43.3958L18.0208 43.0422C17.8446 43.2184 17.6518 43.3914 17.484 43.522L17.4736 43.5301L17.4635 43.5388C16.8836 44.0414 16.2239 44.4299 15.5428 44.7024L15.5321 44.7067L15.5216 44.7114C15.3149 44.8054 15.1058 44.8818 14.8766 44.9652C14.1228 45.2156 13.3042 45.3333 12.4993 45.3333C11.9764 45.3333 11.4489 45.2755 10.936 45.1773C10.6662 45.1151 10.4157 45.0568 10.1677 44.9806C9.87456 44.8889 9.61619 44.8028 9.36528 44.6927C9.35527 44.685 9.34469 44.6774 9.33351 44.6701C9.27248 44.6303 9.20741 44.6066 9.14375 44.5957ZM8.87435 37.5C8.87435 39.5053 10.494 41.125 12.4993 41.125C14.5047 41.125 16.1243 39.5053 16.1243 37.5C16.1243 35.4947 14.5047 33.875 12.4993 33.875C10.494 33.875 8.87435 35.4947 8.87435 37.5Z" stroke="#999DBA"/>
</svg>
