<svg width="133" height="113" viewBox="0 0 133 113" fill="none" xmlns="http://www.w3.org/2000/svg">
<path d="M118.264 52.301C125.643 52.301 134.297 59.5323 132.837 65.8678C131.24 72.7982 128.221 79.4514 123.889 85.4929C117.176 94.8556 107.583 102.369 96.2124 107.171C84.8423 111.972 72.1562 113.866 59.6123 112.635C47.0683 111.403 69.4874 66.0045 59.6123 59.1182C49.7372 52.232 7.96857 84.1378 3.78733 73.7058C-0.3939 63.2739 -1.13007 52.0202 1.66344 41.2382C4.45694 30.4562 10.6668 20.5833 19.5793 12.7541C25.3302 7.70217 32.0558 3.63346 39.4088 0.716784C46.1305 -1.94952 57.9584 3.23045 59.6123 9.5293L64.6978 45.1622C66.093 50.4762 71.4933 54.2421 77.7185 54.2421L118.264 52.301Z" fill="#1336C1"/>
<path d="M118.264 38.686C124.164 37.2875 127.761 31.8564 125.043 27.0171C121.299 20.3489 115.867 14.4809 109.113 9.89657C102.358 5.31224 94.5447 2.19002 86.2938 0.716791C80.3059 -0.352371 75.3058 4.12598 75.3058 9.52931V36.1173C75.3058 42.5503 82.2044 47.2325 89.2293 45.5675L118.264 38.686Z" fill="#1336C1"/>
<path d="M118.264 38.686C124.164 37.2875 127.761 31.8564 125.043 27.0171C121.299 20.3489 115.867 14.4809 109.113 9.89657C102.358 5.31224 94.5447 2.19002 86.2938 0.716791C80.3059 -0.352371 75.3058 4.12598 75.3058 9.52931V36.1173C75.3058 42.5503 82.2044 47.2325 89.2293 45.5675L118.264 38.686Z" fill="#1336C1"/>
<path d="M118.791 39.6318C125.08 38.2046 128.914 32.6622 126.017 27.7237C122.026 20.9188 116.236 14.9305 109.036 10.2522C102.025 5.34975 93.27 1.64691 84.475 0.143489C78.0922 -0.947588 73 4.36336 73 9.87744L73 37.0104C73 43.5752 80.3535 48.3534 87.8416 46.6543L118.791 39.6318Z" fill="#BBFF1A"/>
</svg>
