<svg width="53" height="53" viewBox="0 0 53 53" fill="none" xmlns="http://www.w3.org/2000/svg">
<path d="M32.2277 23.6734V24.1734H32.7277H39.5515C41.0392 24.1734 41.7553 24.6319 41.9748 25.1185C42.1942 25.6045 42.0646 26.444 41.0763 27.5598L41.0751 27.5612L26.1247 44.5653L26.1247 44.5653L24.3584 46.5745C23.7712 47.241 23.236 47.6657 22.7812 47.89C22.3286 48.1132 21.9954 48.121 21.7596 48.0325C21.5241 47.9441 21.2793 47.7196 21.0871 47.2545C20.8939 46.7869 20.7727 46.1153 20.7727 45.2267V29.3267V28.8267H20.2727H13.449C11.9613 28.8267 11.2452 28.3682 11.0256 27.8816C10.8062 27.3956 10.9358 26.5561 11.9241 25.4403L11.9253 25.439L26.8757 8.43479L26.8757 8.43477L28.6421 6.42557C28.6421 6.42547 28.6422 6.42536 28.6423 6.42525C28.6424 6.42523 28.6424 6.42521 28.6424 6.42519C29.2294 5.75894 29.7645 5.3344 30.2192 5.11014C30.6718 4.88688 31.005 4.87912 31.2408 4.96764C31.4763 5.05605 31.7211 5.2805 31.9133 5.74565C32.1065 6.21322 32.2277 6.88479 32.2277 7.77339V23.6734Z" stroke="#999DBA"/>
</svg>
