<svg width="44" height="44" viewBox="0 0 44 44" fill="none" xmlns="http://www.w3.org/2000/svg">
<g style="mix-blend-mode:lighten">
<path fill-rule="evenodd" clip-rule="evenodd" d="M22.1443 0.0078748C21.1605 0.0275649 20.3713 0.0799426 19.4668 0.185579C15.2086 0.68285 11.2639 2.26528 8.10429 4.74371C7.29334 5.37983 6.42036 6.18172 5.70641 6.94634C2.44785 10.4361 0.46911 15.0299 0.0732659 20.0241C-0.0243516 21.2556 -0.0244283 22.7226 0.0730741 23.9428C0.393853 27.9577 1.72528 31.7135 3.94392 34.862C6.00306 37.7842 8.80239 40.1446 12.0568 41.7029C14.6208 42.9305 17.3839 43.6682 20.3401 43.9143C21.8197 44.0375 23.6473 44.0273 25.1576 43.8873C29.5481 43.4803 33.4182 42.0435 36.5162 39.6703C36.9474 39.3401 37.2121 39.1174 37.6973 38.6768C38.4537 37.9901 38.9814 37.4356 39.6112 36.6659C40.7647 35.2561 41.7369 33.6106 42.4407 31.8769C43.4199 29.4647 43.9321 26.9253 43.9929 24.1805C44.0141 23.2213 43.9892 22.6456 43.8985 22.0062C43.509 19.2582 41.8666 17.5075 39.1496 16.9444C38.806 16.8732 38.5209 16.8298 38.0652 16.7794C37.8317 16.7536 37.1595 16.7501 31.2707 16.7443C25.3357 16.7384 24.7151 16.7404 24.5146 16.7662C23.1006 16.9483 21.9775 17.8694 21.6261 19.1351C21.518 19.5247 21.5186 19.506 21.5262 22.2451C21.5336 24.931 21.5296 24.8153 21.625 25.158C21.9397 26.2888 22.917 27.1777 24.1596 27.4635C24.5512 27.5535 24.5372 27.5532 27.8662 27.5532C30.8095 27.5532 30.9657 27.5547 30.9565 27.584C30.9512 27.601 30.9253 27.6981 30.8989 27.7998C30.6661 28.6995 30.1902 29.6343 29.5941 30.3623C28.4017 31.8187 26.6791 32.7942 24.745 33.1084C23.9986 33.2296 23.3311 33.2396 21.7892 33.1529C20.4468 33.0773 19.1522 32.7423 18.0657 32.1892C16.2774 31.279 14.8958 29.7541 13.9931 27.6941C12.7479 24.8528 12.5354 21.0157 13.4514 17.9107C14.2932 15.0569 15.9492 12.9207 18.2096 11.7726C19.2504 11.244 20.4026 10.9307 21.674 10.8304C22.1476 10.7931 23.2455 10.778 23.6701 10.803C24.8408 10.8719 25.7967 11.0391 26.8466 11.3587C28.1691 11.7612 29.2384 12.2751 30.3974 13.0649C30.909 13.4136 31.3339 13.5936 31.8868 13.6958C32.0748 13.7306 32.1637 13.7362 32.5183 13.7361C32.957 13.736 33.0889 13.7208 33.4452 13.6293C34.297 13.4107 35.0438 12.8687 35.4816 12.1516C35.5752 11.9983 37.8479 7.24558 37.924 7.04416C38.2493 6.18234 38.1525 5.2152 37.6623 4.42916C37.4467 4.08346 37.097 3.71232 36.7792 3.49195C36.5145 3.30838 35.3669 2.72567 34.5912 2.38095C31.462 0.990406 28.0097 0.180084 24.5626 0.0270894C23.9637 0.000495426 22.9252 -0.00774694 22.1443 0.0078748ZM22.2594 3.15505C19.2746 3.19462 16.458 3.80547 13.9391 4.95953C13.1692 5.31224 12.6966 5.56067 12.0485 5.95333C11.005 6.58563 10.1403 7.24345 9.18812 8.12956C7.78614 9.43423 6.7168 10.8059 5.7917 12.4862C5.11155 13.7216 4.61131 14.9307 4.21048 16.308C3.43506 18.9724 3.22847 21.9916 3.62354 24.885C4.00459 27.6756 4.98143 30.3323 6.46965 32.6254C6.75022 33.0577 7.19524 33.6696 7.51997 34.0696C9.72773 36.7888 12.5611 38.723 15.9832 39.8468C17.6148 40.3826 19.2146 40.6799 21.2134 40.8187C21.6414 40.8484 23.4893 40.8485 23.9484 40.8188C26.4716 40.6557 28.5311 40.2119 30.5509 39.3959C31.6465 38.9533 32.8275 38.3137 33.7827 37.6457C34.7213 36.9893 35.743 36.0723 36.5145 35.1938C38.5374 32.8905 39.8609 29.9257 40.3579 26.5845C40.469 25.8377 40.5306 25.1157 40.5627 24.188C40.6123 22.7503 40.475 21.8306 40.1093 21.1515C39.732 20.4507 39.0567 20.0774 37.9116 19.9366C37.4402 19.8787 36.7714 19.8732 30.8389 19.8782L24.9657 19.8832L24.9608 22.1415L24.9559 24.3998L29.0202 24.4047L33.0845 24.4096L33.2685 24.4562C33.5664 24.5317 33.7866 24.6476 34.0126 24.8479C34.445 25.2309 34.5713 25.585 34.5445 26.338C34.497 27.6687 34.2699 28.7168 33.7792 29.8704C32.8531 32.0474 31.1143 33.8866 28.8888 35.043C27.5357 35.7461 26.0648 36.1695 24.4283 36.3271C23.9461 36.3735 22.0933 36.3457 21.2805 36.2798C16.65 35.9046 13.0434 33.4767 11.0493 29.3919C10.2423 27.7389 9.72811 25.8257 9.53501 23.7578C9.43547 22.692 9.43549 21.3618 9.53504 20.2707C9.76416 17.7596 10.5399 15.382 11.7674 13.4285C13.7456 10.2803 16.7988 8.3082 20.5032 7.78579C21.6489 7.62424 23.2569 7.59206 24.5146 7.70554C27.3482 7.96119 30.0155 8.89627 32.2827 10.4289C32.4706 10.5559 32.5005 10.5706 32.5159 10.5441C32.5315 10.5171 34.4613 6.47441 34.6211 6.13387L34.6846 5.9985L34.422 5.85907C31.8651 4.50165 28.7995 3.58481 25.7859 3.27629C24.6644 3.16148 23.86 3.13383 22.2594 3.15505Z" fill="#E3E7EF"/>
</g>
</svg>
