<svg width="36" height="37" viewBox="0 0 36 37" fill="none" xmlns="http://www.w3.org/2000/svg">
<path d="M3.43457 12.17V26.765C3.43457 29.615 5.45957 30.785 7.91957 29.375L11.4446 27.365C12.2096 26.93 13.4846 26.885 14.2796 27.29L22.1546 31.235C22.9496 31.625 24.2246 31.595 24.9896 31.16L31.4846 27.44C32.3096 26.96 32.9996 25.79 32.9996 24.83V10.235C32.9996 7.38496 30.9746 6.21496 28.5146 7.62496L24.9896 9.63496C24.2246 10.07 22.9496 10.115 22.1546 9.70996L14.2796 5.77996C13.4846 5.38996 12.2096 5.41996 11.4446 5.85496L4.94957 9.57496C4.10957 10.055 3.43457 11.225 3.43457 12.17Z" stroke="white" stroke-width="1.5" stroke-linecap="round" stroke-linejoin="round"/>
<path d="M12.8398 6.5V26" stroke="white" stroke-width="1.5" stroke-linecap="round" stroke-linejoin="round"/>
<path d="M23.5947 10.4299V30.4999" stroke="white" stroke-width="1.5" stroke-linecap="round" stroke-linejoin="round"/>
</svg>
