<svg width="53" height="53" viewBox="0 0 53 53" fill="none" xmlns="http://www.w3.org/2000/svg">
<path d="M31.1738 31.6233C31.1738 31.1044 31.5904 30.6879 32.1092 30.6879C32.5965 30.6879 33.0262 31.0962 33.0446 31.6302C33.041 32.1458 32.6258 32.5587 32.1092 32.5587C31.5904 32.5587 31.1738 32.1421 31.1738 31.6233Z" stroke="#999DBA"/>
<path d="M19.0723 33.8096C19.0723 33.2907 19.4888 32.8741 20.0077 32.8741C20.5265 32.8741 20.9431 33.2907 20.9431 33.8096C20.9431 34.3284 20.5265 34.745 20.0077 34.745C19.4888 34.745 19.0723 34.3284 19.0723 33.8096Z" stroke="#999DBA"/>
<path d="M48.0616 17.2457V17.247V35.7529C48.0616 39.6726 46.8951 42.741 44.8072 44.8289C42.7192 46.9168 39.6509 48.0833 35.7312 48.0833H17.2474C13.3277 48.0833 10.2595 46.9169 8.1716 44.8264C6.08365 42.7358 4.91699 39.6619 4.91699 35.7308V17.247C4.91699 13.3273 6.08344 10.259 8.17138 8.17101C10.2593 6.08308 13.3277 4.91663 17.2474 4.91663H35.7532C39.6731 4.91663 42.7412 6.08312 44.8263 8.17079C46.9112 10.2584 48.0723 13.3263 48.0616 17.2457ZM33.0449 26.022C32.7471 25.9668 32.4377 25.9337 32.1095 25.9337C28.9846 25.9337 26.442 28.4763 26.442 31.6012C26.442 34.7261 28.9846 37.2687 32.1095 37.2687C35.2344 37.2687 37.777 34.7261 37.777 31.6012V21.0895V18.7266C37.777 16.3539 36.7922 15.0869 35.9523 14.4251L35.9523 14.4251L35.9465 14.4207C35.074 13.7535 33.5888 13.1677 31.3163 13.7832L31.3148 13.7836L24.7156 15.5934C24.7149 15.5936 24.7143 15.5938 24.7136 15.5939C22.4176 16.2055 20.9432 18.1497 20.9432 20.5154V24.3579V28.2082C20.6454 28.1531 20.336 28.12 20.0078 28.12C16.8829 28.12 14.3403 30.6626 14.3403 33.7875C14.3403 36.9124 16.8829 39.455 20.0078 39.455C23.0768 39.455 25.6034 37.0087 25.674 33.9446C25.6856 33.9061 25.6974 33.852 25.6974 33.7875V26.1753L33.0449 24.1732V26.022Z" stroke="#999DBA"/>
</svg>
