<svg width="45" height="46" viewBox="0 0 45 46" fill="none" xmlns="http://www.w3.org/2000/svg">
<path d="M34.9399 13.1405C34.9399 13.5159 34.9399 13.7036 34.9399 14.0791C34.756 16.8949 33.4687 19.3353 31.8137 21.0248C29.7909 23.0897 27.0325 24.4037 23.9063 24.4037H18.2056C17.2862 24.4037 16.5506 25.1546 16.3667 26.0932L14.8956 36.0425C14.7117 36.7934 14.3439 37.3565 13.6083 37.5442C13.4244 37.5442 13.2405 37.5442 13.0566 37.5442H9.56267C8.45931 37.5442 7.53985 36.6056 7.72374 35.2916L12.1372 8.44743C12.505 5.81933 14.8956 3.75439 17.4701 3.75439H25.7452C30.8942 3.75439 34.9399 7.88427 34.9399 13.1405Z" stroke="white" stroke-width="3" stroke-miterlimit="10"/>
<path d="M38.6175 20.6494C38.6175 23.2775 37.5142 25.5301 35.8591 27.2196C34.2041 28.9091 31.9974 30.0354 29.4229 30.0354H25.5612C24.6417 30.0354 23.9061 30.5986 23.7222 31.5372L22.435 39.6092C22.2511 40.5478 21.5155 41.111 20.5961 41.111H15.0793C13.9759 41.111 13.0565 39.9847 13.2403 38.8583L13.6081 37.5443C14.3437 37.3566 14.8954 36.7934 14.8954 36.0425L16.3665 26.0933C16.5504 25.1547 17.286 24.4038 18.2054 24.4038H23.9061C27.0323 24.4038 29.7907 23.0897 31.6296 21.0248C33.4685 19.1476 34.5719 16.7072 34.7558 14.0791C37.1464 15.3932 38.6175 17.8335 38.6175 20.6494Z" stroke="white" stroke-width="3" stroke-miterlimit="10"/>
</svg>
