<svg width="50" height="50" viewBox="0 0 50 50" fill="none" xmlns="http://www.w3.org/2000/svg">
<path d="M34.2077 16.5625C39.2911 21.6458 39.2911 29.8958 34.2077 34.9791C29.1244 40.0624 20.8743 40.0624 15.791 34.9791C10.7077 29.8958 10.7077 21.6458 15.791 16.5625C20.8743 11.4792 29.1244 11.4792 34.2077 16.5625Z" stroke="#999DBA" stroke-width="1.5" stroke-linecap="round" stroke-linejoin="round"/>
<path d="M17.1872 45.0834C13.0206 43.4167 9.37474 40.3958 6.95807 36.2083C4.58307 32.1042 3.7914 27.5417 4.3539 23.1875" stroke="#999DBA" stroke-width="1.5" stroke-linecap="round" stroke-linejoin="round"/>
<path d="M12.1875 9.33328C15.7292 6.56245 20.1667 4.91663 25 4.91663C29.7292 4.91663 34.0833 6.52077 37.5833 9.18743" stroke="#999DBA" stroke-width="1.5" stroke-linecap="round" stroke-linejoin="round"/>
<path d="M32.8125 45.0834C36.9792 43.4167 40.625 40.3958 43.0417 36.2083C45.4167 32.1042 46.2083 27.5417 45.6458 23.1875" stroke="#999DBA" stroke-width="1.5" stroke-linecap="round" stroke-linejoin="round"/>
</svg>
