<svg width="50" height="50" viewBox="0 0 50 50" fill="none" xmlns="http://www.w3.org/2000/svg">
<path d="M46.9582 13.3749C46.7107 12.3862 46.2067 11.4803 45.4971 10.7487C44.7874 10.0171 43.8973 9.48572 42.9166 9.20825C39.3332 8.33325 24.9999 8.33325 24.9999 8.33325C24.9999 8.33325 10.6666 8.33325 7.08322 9.29159C6.10249 9.56905 5.21234 10.1004 4.50269 10.832C3.79305 11.5636 3.28903 12.4695 3.04156 13.4583C2.38575 17.0948 2.06496 20.7839 2.08322 24.4791C2.05985 28.2021 2.38065 31.9193 3.04156 35.5833C3.31439 36.5413 3.82969 37.4127 4.53769 38.1134C5.24568 38.8141 6.12243 39.3204 7.08322 39.5833C10.6666 40.5416 24.9999 40.5416 24.9999 40.5416C24.9999 40.5416 39.3332 40.5416 42.9166 39.5833C43.8973 39.3058 44.7874 38.7744 45.4971 38.0428C46.2067 37.3112 46.7107 36.4053 46.9582 35.4166C47.609 31.8074 47.9297 28.1464 47.9166 24.4791C47.9399 20.7561 47.6191 17.0389 46.9582 13.3749Z" stroke="white" stroke-width="3" stroke-linecap="round" stroke-linejoin="round"/>
<path d="M20.3125 31.2917L32.2917 24.4792L20.3125 17.6667V31.2917Z" stroke="white" stroke-width="2" stroke-linecap="round" stroke-linejoin="round"/>
</svg>
